<svg width="20" height="20" viewBox="0 0 20 20" fill="none" xmlns="http://www.w3.org/2000/svg">
<path d="M12.8655 6.74351L10.5258 1.76358C10.3606 1.41214 9.85187 1.41214 9.68675 1.76358L7.34706 6.74351C7.27976 6.88675 7.1415 6.98537 6.98195 7.00394L1.43476 7.64965C1.04328 7.69522 0.886061 8.17026 1.17549 8.43304L5.27667 12.1565C5.39463 12.2636 5.44744 12.4232 5.41613 12.5779L4.32747 17.9569C4.25064 18.3365 4.66225 18.6301 5.00624 18.4411L9.88061 15.7624C10.0208 15.6853 10.1917 15.6853 10.3319 15.7624L15.2063 18.4411C15.5503 18.6301 15.9619 18.3365 15.885 17.9569L14.7964 12.5779C14.7651 12.4232 14.8179 12.2636 14.9358 12.1565L19.037 8.43304C19.3265 8.17026 19.1692 7.69522 18.7778 7.64965L13.2306 7.00394C13.071 6.98537 12.9328 6.88674 12.8655 6.74351Z" stroke="#3B3F58" stroke-width="1.5" stroke-linecap="round" stroke-linejoin="round"/>
</svg>
