<svg width="20" height="18" viewBox="0 0 20 18" fill="none" xmlns="http://www.w3.org/2000/svg">
<path d="M17.7857 2.41452C17.3419 1.96607 16.8151 1.61034 16.2353 1.36763C15.6554 1.12492 15.0339 1 14.4063 1C13.7786 1 13.1571 1.12492 12.5773 1.36763C11.9974 1.61034 11.4706 1.96607 11.0269 2.41452L10.106 3.34476L9.18517 2.41452C8.2889 1.50912 7.0733 1.00047 5.80578 1.00047C4.53827 1.00047 3.32267 1.50912 2.4264 2.41452C1.53013 3.31992 1.02661 4.5479 1.02661 5.82833C1.02661 7.10875 1.53013 8.33674 2.4264 9.24214L3.34726 10.1724L10.106 17L16.8648 10.1724L17.7857 9.24214C18.2296 8.79391 18.5817 8.26171 18.822 7.67596C19.0622 7.0902 19.1859 6.46237 19.1859 5.82833C19.1859 5.19428 19.0622 4.56645 18.822 3.9807C18.5817 3.39494 18.2296 2.86275 17.7857 2.41452Z" stroke="#3B3F58" stroke-width="1.5" stroke-linecap="round" stroke-linejoin="round"/>
</svg>
